<?xml version="1.0" encoding="UTF-8" standalone="no"?>
<!-- Created with Inkscape (http://www.inkscape.org/) -->

<svg
   xmlns:dc="http://purl.org/dc/elements/1.1/"
   xmlns:cc="http://creativecommons.org/ns#"
   xmlns:rdf="http://www.w3.org/1999/02/22-rdf-syntax-ns#"
   xmlns:svg="http://www.w3.org/2000/svg"
   xmlns="http://www.w3.org/2000/svg"
   xmlns:sodipodi="http://sodipodi.sourceforge.net/DTD/sodipodi-0.dtd"
   xmlns:inkscape="http://www.inkscape.org/namespaces/inkscape"
   width="29.82086mm"
   height="4.0822649mm"
   viewBox="0 0 105.66446 14.464718"
   id="svg4756"
   version="1.1"
   inkscape:version="0.91 r13725"
   sodipodi:docname="dingbat.svg">
  <defs
     id="defs4758" />
  <sodipodi:namedview
     id="base"
     pagecolor="#ffffff"
     bordercolor="#666666"
     borderopacity="1.0"
     inkscape:pageopacity="0.0"
     inkscape:pageshadow="2"
     inkscape:zoom="7.0276316"
     inkscape:cx="104.28571"
     inkscape:cy="-17.142857"
     inkscape:document-units="px"
     inkscape:current-layer="layer1"
     showgrid="false"
     fit-margin-top="0"
     fit-margin-left="0"
     fit-margin-right="0"
     fit-margin-bottom="0"
     inkscape:window-width="1920"
     inkscape:window-height="970"
     inkscape:window-x="0"
     inkscape:window-y="33"
     inkscape:window-maximized="1" />
  <metadata
     id="metadata4761">
    <rdf:RDF>
      <cc:Work
         rdf:about="">
        <dc:format>image/svg+xml</dc:format>
        <dc:type
           rdf:resource="http://purl.org/dc/dcmitype/StillImage" />
        <dc:title></dc:title>
      </cc:Work>
    </rdf:RDF>
  </metadata>
  <g
     inkscape:label="Camada 1"
     inkscape:groupmode="layer"
     id="layer1"
     transform="translate(-352.88205,-476.55842)">
    <path
       style="opacity:1;fill:#555753"
       d="m 408.15675,476.55882 c -1.51052,0.29082 -2.24274,1.88962 -2.61389,3.2269 -0.41004,1.65124 -0.47798,3.60335 0.54565,5.04117 0.58994,0.16615 0.97094,-0.56081 1.29591,-0.93463 1.14548,-1.63905 2.56813,-3.28658 2.77594,-5.35455 -0.0436,-1.02037 -0.95812,-2.00191 -2.00361,-1.97889 z m -10.22498,2.07251 c -0.93486,-0.0305 -1.77097,0.94436 -1.37299,1.84829 0.57876,2.05488 2.60768,3.15453 4.35261,4.10369 0.66628,0.34995 1.43939,0.71387 2.19642,0.57389 0.45361,-0.84995 -0.35342,-1.69837 -0.69886,-2.42561 -0.85587,-1.45354 -1.76702,-3.03635 -3.24979,-3.93559 -0.39002,-0.15991 -0.81513,-0.14625 -1.22739,-0.16467 z m 16.25704,0.19094 c -1.63868,0.36487 -2.57103,1.95402 -3.48061,3.21531 -0.60357,0.97967 -1.40918,2.16538 -1.0243,3.35007 0.5596,0.60535 1.47729,0.0943 2.10638,-0.13002 2.05518,-0.8767 4.26875,-1.86466 5.57427,-3.7723 0.40324,-0.78366 0.0591,-1.80677 -0.78264,-2.11787 -0.72314,-0.402 -1.57362,-0.56231 -2.3931,-0.54519 z m -55.86808,0.49848 c -2.03202,-0.002 -4.29309,0.91527 -5.09273,2.91492 -0.89519,2.1125 0.0149,4.7327 1.94697,5.93474 3.20411,2.4912 7.45023,3.17401 11.39405,2.72312 7.55171,-0.75532 14.5065,-4.03713 21.62891,-6.43688 2.38944,-0.69119 5.01154,-1.54381 7.46882,-0.66095 1.37573,0.67535 1.93215,2.84069 0.6754,3.89317 -0.78035,0.7697 -1.91477,1.45552 -3.03676,1.02458 0.2982,-0.60778 0.47334,-1.59699 -0.21274,-1.99369 -1.17718,0.22222 -1.53903,1.80506 -0.89106,2.71093 0.5478,1.03205 1.85945,1.61048 2.96396,1.13631 1.34392,-0.52964 2.31116,-1.86312 2.59377,-3.25417 0.13166,-1.32215 -0.32645,-2.65904 -0.99247,-3.78457 -1.07068,-1.55063 -3.14827,-1.86883 -4.88836,-1.81112 -3.49016,0.23792 -6.65901,1.88146 -9.90488,3.03114 -5.6074,2.12105 -11.3961,4.14748 -17.44134,4.40135 -3.13663,0.019 -6.38568,-0.43896 -9.16051,-1.97752 -1.02568,-0.68773 -2.01997,-1.86155 -1.79653,-3.17262 0.54707,-1.68411 2.37561,-2.43029 3.97418,-2.74068 1.39166,-0.31432 3.12247,-0.11438 4.0037,1.13081 0.21147,0.42049 0.29119,-0.19138 0.21235,-0.35288 -0.41713,-1.56642 -1.77814,-2.76149 -3.44473,-2.71599 z m 96.58856,1.49989 c -1.35019,0.0674 -3.02064,-0.0853 -3.97725,1.0855 -0.67663,0.87163 -0.14729,2.25107 0.76668,2.70334 0.35834,-0.44569 0.10737,-1.19518 0.65399,-1.54719 1.25454,-1.2398 3.60709,-1.36151 4.74355,0.0934 0.84377,1.14654 0.5185,2.8818 -0.58605,3.7437 -1.99739,1.86163 -4.86765,2.2054 -7.47727,2.33297 -6.43421,0.24103 -12.82195,-1.39756 -18.68057,-3.97398 -2.55398,-1.02449 -4.90854,-2.63218 -7.61111,-3.19851 -1.96572,-0.40907 -4.20408,0.59893 -5.08494,2.42288 -0.64396,1.68707 -0.15191,3.86469 1.39517,4.92223 0.82636,0.68957 2.02546,0.20947 2.52486,-0.62888 0.31377,-0.51277 0.7829,-1.33484 0.26121,-1.85219 -0.64514,0.0365 -1.03303,0.73082 -1.57911,1.02964 -0.62427,0.42131 -1.60932,0.60409 -2.11457,-0.0981 -0.48499,-0.68327 0.0167,-1.53754 0.35931,-2.16925 1.14552,-1.84393 3.62296,-2.65311 5.6495,-1.89658 3.88488,1.02891 7.23345,3.39869 11.08228,4.51642 2.82594,0.93154 5.72825,1.71178 8.67572,2.1324 3.61276,0.0871 7.26197,0.24207 10.81953,-0.47563 1.75528,-0.60791 3.29894,-2.06586 3.78457,-3.87857 0.23146,-1.76539 -0.83977,-3.42194 -2.03398,-4.61847 -0.43384,-0.3768 -0.9825,-0.66675 -1.57152,-0.64516 z"
       id="path4724"
       inkscape:connector-curvature="0" />
  </g>
</svg>
