<?xml version="1.0" encoding="UTF-8" standalone="no"?>
<!-- Created with Inkscape (http://www.inkscape.org/) -->

<svg
   xmlns:dc="http://purl.org/dc/elements/1.1/"
   xmlns:cc="http://creativecommons.org/ns#"
   xmlns:rdf="http://www.w3.org/1999/02/22-rdf-syntax-ns#"
   xmlns:svg="http://www.w3.org/2000/svg"
   xmlns="http://www.w3.org/2000/svg"
   xmlns:sodipodi="http://sodipodi.sourceforge.net/DTD/sodipodi-0.dtd"
   xmlns:inkscape="http://www.inkscape.org/namespaces/inkscape"
   width="45.506092mm"
   height="22.577778mm"
   viewBox="0 0 161.24206 79.999999"
   id="svg3666"
   version="1.1"
   inkscape:version="0.91 r13725"
   sodipodi:docname="codeschool-logo.svg">
  <defs
     id="defs3668" />
  <sodipodi:namedview
     id="base"
     pagecolor="#ffffff"
     bordercolor="#666666"
     borderopacity="1.0"
     inkscape:pageopacity="0.0"
     inkscape:pageshadow="2"
     inkscape:zoom="2.9027174"
     inkscape:cx="86.129521"
     inkscape:cy="16.79525"
     inkscape:document-units="px"
     inkscape:current-layer="layer1"
     showgrid="false"
     inkscape:window-width="1920"
     inkscape:window-height="970"
     inkscape:window-x="0"
     inkscape:window-y="33"
     inkscape:window-maximized="1"
     fit-margin-top="0"
     fit-margin-left="0"
     fit-margin-right="0"
     fit-margin-bottom="0" />
  <metadata
     id="metadata3671">
    <rdf:RDF>
      <cc:Work
         rdf:about="">
        <dc:format>image/svg+xml</dc:format>
        <dc:type
           rdf:resource="http://purl.org/dc/dcmitype/StillImage" />
        <dc:title></dc:title>
      </cc:Work>
    </rdf:RDF>
  </metadata>
  <g
     inkscape:label="Camada 1"
     inkscape:groupmode="layer"
     id="layer1"
     transform="translate(-325.29905,-354.87174)">
    <g
       transform="matrix(1.2606853,0,0,1.2606853,-64.18372,648.9731)"
       id="g3623">
      <g
         transform="translate(268.11816,-216.19687)"
         id="g3587">
        <g
           transform="translate(19.499467,-3.1021851)"
           id="g3589">
          <g
             id="g3591"
             transform="matrix(0.26519921,-0.02790159,0.04354406,0.26355346,45.791041,69.461249)">
            <path
               id="path3593"
               style="font-style:normal;font-variant:normal;font-weight:normal;font-stretch:normal;font-size:medium;line-height:125%;font-family:Pacifico;-inkscape-font-specification:Pacifico;letter-spacing:0px;word-spacing:0px;fill:#000000;fill-opacity:1;stroke:none;stroke-width:1px;stroke-linecap:butt;stroke-linejoin:miter;stroke-opacity:1"
               d="m -38.654267,-238.00942 q 0.865972,-5.60003 2.944328,-10.2763 2.078355,-4.67633 5.022739,-8.02481 3.002062,-3.40621 6.696948,-5.25368 3.694828,-1.84741 7.851596,-1.84741 2.078355,0 5.022682,0.17298 2.9443842,0.1157 6.1196524,0.69276 3.1752682,0.57736 6.2928012,1.67427 3.1752682,1.09691 5.7155054,3.00206 0.8082367,0.63509 1.154648,1.5588 0.404374,0.86597 0.404374,1.84741 0,1.32785 -0.577296,2.71344 -0.5195038,1.32786 -1.5010596,2.42477 -0.9237072,1.09691 -2.1938258,1.84742 -1.2701186,0.69282 -2.7711782,0.69282 -1.3855324,0 -3.3484739,-0.28868 -1.9051496,-0.28867 -4.1567106,-0.63509 -2.1938258,-0.34652 -4.5031219,-0.63503 -2.251561,-0.28867 -4.329917,-0.28867 -1.847471,0 -3.348473,0.7505 -1.50106,0.69276 -2.713443,2.71344 -1.212384,1.96289 -2.251561,5.48457 -1.039178,3.46394 -1.90515,9.06398 -0.692823,4.32991 -1.50106,8.65983 -0.750501,4.27218 -2.193825,8.0248 -1.38559,3.69488 -3.752621,6.52374 -2.309296,2.82892 -6.119595,4.21445 2.309296,0.57735 3.868034,1.9052 1.558795,1.3278 2.482502,3.23301 0.923707,1.84741 1.270119,4.21444 0.404373,2.3093 0.404373,4.90727 0,3.29074 -0.461655,6.98563 -0.404374,3.63709 -0.923707,7.15877 -0.461655,3.52168 -0.923707,6.63921 -0.404374,3.05986 -0.404374,5.08048 0,2.42476 0.346525,3.9835 0.404374,1.5588 1.096913,2.4825 0.692766,0.98144 1.674209,1.32786 1.039177,0.40437 2.367031,0.40437 2.078355,0 3.925826,-0.69277 1.847415,-0.63508 3.579415,-1.44332 1.789679,-0.80824 3.463945,-1.44332 1.731944,-0.69277 3.521623,-0.69277 0.981499,0 1.962941,0.34652 0.981443,0.34653 1.731944,1.09692 0.7505014,0.7505 1.2123834,1.90515 0.4616551,1.15464 0.4616551,2.71344 0,0.86597 -0.1729789,1.90515 -0.2886762,1.96288 -2.0206196,3.52168 -1.674266,1.61647 -4.156711,2.82886 -2.482502,1.27011 -5.426886,2.13609 -2.944327,0.86602 -5.715505,1.44332 -2.771122,0.57735 -5.022683,0.86597 -2.251561,0.28868 -3.406209,0.28868 -3.52168,0 -6.292858,-1.38553 -2.771121,-1.38559 -4.676271,-3.98357 -1.905206,-2.54023 -2.944384,-6.11959 -0.981442,-3.52168 -0.981442,-7.8516 0,-4.84953 0.923707,-10.04548 0.981442,-5.25362 1.847471,-10.33404 0.115697,-0.86603 0.172979,-1.732 0.115697,-0.9237 0.115697,-1.90515 0,-2.07835 -0.461655,-4.04129 -0.404374,-2.02062 -1.443324,-3.57936 -1.039178,-1.5588 -2.771179,-2.54024 -1.731943,-0.98144 -4.329916,-0.98144 -2.367031,0 -3.406209,-1.732 -1.039178,-1.78968 -1.039178,-4.21445 0,-1.78968 0.519504,-3.63715 0.519504,-1.90515 1.443324,-3.40621 0.923707,-1.55874 2.193826,-2.54023 1.327854,-1.03918 2.886592,-1.09692 3.694885,-0.0579 6.004182,-0.98144 2.367031,-0.98144 3.810356,-2.82886 1.443267,-1.84747 2.251561,-4.56085 0.808236,-2.77118 1.385532,-6.40828 l 0,-12.00836 z"
               inkscape:connector-curvature="0" />
            <path
               inkscape:connector-curvature="0"
               id="path3595"
               d="m 98.312066,-305.86812 c -29.728886,0.9195 -54.761823,21.70581 -71.06882,45.09199 -22.4473874,32.55557 -37.327186,72.67609 -31.9507148,112.63262 4.49592393,25.01275 22.8833768,49.566137 49.0833238,53.826897 24.949676,3.54506 50.846631,-3.10587 72.303395,-15.926507 19.55225,-12.46319 34.25159,-31.02127 52.88868,-44.55469 1.79901,-3.57926 0.37234,-7.92114 0.70117,-11.83594 0.84026,-6.16858 -4.37311,-0.82304 -7.25781,0.38086 -27.85896,16.47234 -50.69156,43.13406 -83.208993,50.44727 -18.069118,4.57293 -41.257894,2.89922 -52.673828,-13.84571 -14.039183,-20.74808 -9.989722,-47.56473 -4.19655,-70.45293 7.993153,-30.62518 22.330423,-61.54159 48.262956,-80.96699 12.966354,-8.75284 32.952675,-12.23126 45.101565,-0.27539 13.03607,14.38616 8.74754,37.63182 -3.10351,51.41602 -9.96104,12.2126 -27.018191,19.86401 -42.537117,14.83203 -4.703903,0.25329 -2.961854,6.2518 -3.351563,9.30859 -0.08562,4.92382 3.963412,9.4903 9.107422,8.76953 21.638964,2.59166 40.936838,-12.51422 52.320318,-29.58984 12.85594,-18.11243 17.28507,-44.96834 3.19726,-63.66016 -7.80381,-10.23772 -20.84968,-15.92102 -33.617184,-15.59765 z"
               style="font-style:normal;font-variant:normal;font-weight:normal;font-stretch:normal;font-size:medium;line-height:125%;font-family:Pacifico;-inkscape-font-specification:Pacifico;letter-spacing:0px;word-spacing:0px;fill:#000000;fill-opacity:1;stroke:none;stroke-width:1px;stroke-linecap:butt;stroke-linejoin:miter;stroke-opacity:1" />
            <path
               id="path3597"
               style="font-style:normal;font-variant:normal;font-weight:normal;font-stretch:normal;font-size:medium;line-height:125%;font-family:Pacifico;-inkscape-font-specification:Pacifico;letter-spacing:0px;word-spacing:0px;fill:#000000;fill-opacity:1;stroke:none;stroke-width:1px;stroke-linecap:butt;stroke-linejoin:miter;stroke-opacity:1"
               d="m 161.73832,-201.34935 q 1.67421,3.34847 2.4825,7.10109 0.86597,3.69483 0.86597,7.10104 0,3.40621 -0.7505,6.87015 -0.75056,3.46395 -2.19388,6.69695 -1.38553,3.23306 -3.46389,6.06192 -2.02068,2.82885 -4.67633,4.90726 -2.59797,2.07836 -5.7155,3.29074 -3.11754,1.21239 -6.63921,1.21239 -5.08048,0 -8.71763,-2.19383 -3.57936,-2.25156 -5.88865,-5.83098 -2.3093,-3.57941 -3.40621,-8.08253 -1.03918,-4.50312 -1.03918,-9.12172 0,-6.35053 1.90515,-11.83515 1.90515,-5.5423 5.42683,-9.58354 3.57941,-4.09898 8.71757,-6.40828 5.13821,-2.36703 11.54648,-2.36703 5.48456,0 10.27636,1.73195 4.7918,1.67426 8.94851,4.56085 4.21444,2.82892 7.79386,6.52375 3.63715,3.69488 6.75468,7.62071 l -1.09691,8.14021 q -1.55879,-2.07835 -4.21445,-4.50312 -2.6557,-2.42471 -5.65777,-4.73401 -2.94438,-2.30929 -5.83097,-4.32991 -2.88659,-2.07841 -4.96495,-3.46395 l -0.46222,0.63504 z m -17.83928,32.15688 q 1.96288,0 3.8103,-1.96288 1.84747,-2.02062 3.233,-5.02269 1.38559,-3.05985 2.19382,-6.69694 0.86603,-3.69489 0.86603,-7.04336 0,-2.65571 -0.40437,-4.90727 -0.40437,-2.3093 -1.21238,-3.98351 -0.80824,-1.67426 -2.07836,-2.65571 -1.27012,-0.98144 -3.0598,-0.98144 -2.36703,0 -4.50318,2.02062 -2.13609,2.02062 -3.75256,5.19595 -1.61653,3.11753 -2.54024,6.92783 -0.9237,3.81036 -0.9237,7.33203 0,2.42477 0.46165,4.56086 0.46166,2.13609 1.44333,3.75262 0.98144,1.55874 2.59791,2.54018 1.61653,0.92371 3.86809,0.92371 z"
               inkscape:connector-curvature="0" />
            <path
               id="path3599"
               style="font-style:normal;font-variant:normal;font-weight:normal;font-stretch:normal;font-size:medium;line-height:125%;font-family:Pacifico;-inkscape-font-specification:Pacifico;letter-spacing:0px;word-spacing:0px;fill:#000000;fill-opacity:1;stroke:none;stroke-width:1px;stroke-linecap:butt;stroke-linejoin:miter;stroke-opacity:1"
               d="m 202.03548,-201.7535 q -3.81036,1.84747 -6.81242,4.90727 -2.94439,3.00206 -4.96501,6.52374 -1.96288,3.52168 -3.00206,7.10109 -1.03918,3.57942 -1.03918,6.46601 0,1.15465 0.23083,2.3093 0.28868,1.15464 0.98144,2.07835 0.69277,0.92371 1.96289,1.50106 1.27012,0.5773 3.29074,0.5773 1.03917,0 2.02062,-0.51951 1.03918,-0.5195 1.96294,-1.32779 0.92371,-0.86603 1.73194,-1.90521 0.86597,-1.09691 1.5588,-2.25156 1.61647,-2.65565 2.94432,-6.00412 -0.17297,-0.8083 -0.28867,-2.54024 -0.1157,-1.78974 -0.17298,-3.92583 -0.0579,-2.19383 -0.11513,-4.50312 -0.0579,-2.3093 -0.1157,-4.21445 0,-1.90515 -0.0579,-3.11753 -0.0579,-1.21238 -0.11569,-1.15465 z m 39.71986,32.33015 q -4.09903,3.17526 -8.08254,5.65777 -1.67426,1.03917 -3.52168,2.07835 -1.84747,0.98144 -3.63715,1.78968 -1.78968,0.75056 -3.52168,1.27012 -1.67421,0.46165 -3.11753,0.46165 -0.80824,0 -2.42477,-0.34652 -1.55879,-0.34653 -3.46394,-1.38559 -1.84742,-1.09691 -3.75262,-3.11753 -1.84742,-2.02062 -3.23301,-5.3691 -2.13609,2.07836 -4.56085,3.98351 -2.36698,1.84747 -4.96495,3.233 -2.54024,1.38559 -5.19595,2.25156 -2.59791,0.8083 -5.25362,0.8083 -3.75262,0 -6.52374,-1.61653 -2.71344,-1.61648 -4.56086,-4.27218 -1.78973,-2.71345 -2.71344,-6.11966 -0.86597,-3.40621 -0.86597,-7.0433 0,-3.69489 0.9237,-7.44751 0.98145,-3.81029 2.77118,-7.33197 1.84742,-3.57942 4.44539,-6.69695 2.59797,-3.17527 5.88871,-5.60004 3.29074,-2.4825 7.15877,-4.09903 3.86809,-1.61647 8.25575,-2.02062 0.17297,-7.38971 1.32785,-14.60628 1.15465,-7.21656 3.0598,-13.74031 1.90515,-6.52374 4.44538,-12.06604 2.59798,-5.5423 5.65777,-9.58359 3.0598,-4.04124 6.52375,-6.2928 3.46394,-2.3093 7.15883,-2.3093 2.71344,0 4.61859,1.44332 1.90515,1.38559 3.0598,3.75257 1.21238,2.30929 1.732,5.42688 0.5195,3.0598 0.5195,6.35054 0,2.02062 -0.17298,4.15671 -0.7505,8.14027 -2.77112,15.41457 -2.02062,7.21651 -4.73406,14.08666 -2.71345,6.87016 -5.88871,13.62484 -3.17527,6.75468 -6.17733,14.02898 -0.28868,0.80824 -0.57736,1.96289 -0.28867,1.15465 -0.57729,2.54024 -0.23083,1.32779 -0.40438,2.77112 -0.17298,1.38559 -0.17298,2.71344 0,1.67421 0.17298,3.17527 0.23083,1.50106 0.69277,2.71344 0.46165,1.15465 1.21238,1.84742 0.8083,0.69276 1.96294,0.69276 1.09692,0 2.36704,-0.40437 1.32779,-0.46166 2.77112,-1.21238 1.44332,-0.75051 2.88665,-1.67421 1.501,-0.98145 2.88659,-1.96289 3.17527,-2.30929 6.63921,-5.25368 l 1.732,13.33616 z m -12.58566,-74.1861 q 0.34652,-4.04124 0.34652,-6.40828 0,-3.11753 -0.57729,-4.32991 -0.51951,-1.21238 -1.5588,-1.21238 -1.84741,0 -3.34847,2.36703 -1.501,2.30929 -2.65565,5.94644 -1.15465,3.6371 -2.02068,8.0248 -0.86597,4.38766 -1.44327,8.48663 -0.57735,4.09898 -0.9237,7.38977 -0.34653,3.29074 -0.46166,4.67627 -0.23083,2.82892 -0.40437,5.48462 -0.1157,2.59792 -0.17298,4.79175 -0.0579,2.13609 -0.0579,3.75262 0,1.61647 0,2.4825 l 0,0.57729 q 3.2908,-7.50518 6.06192,-14.95269 1.15465,-3.17526 2.30929,-6.63921 1.21239,-3.52168 2.19383,-7.0433 0.98144,-3.52168 1.67427,-6.92789 0.7505,-3.40621 1.03917,-6.46606 z"
               inkscape:connector-curvature="0" />
            <path
               id="path3601"
               style="font-style:normal;font-variant:normal;font-weight:normal;font-stretch:normal;font-size:medium;line-height:125%;font-family:Pacifico;-inkscape-font-specification:Pacifico;letter-spacing:0px;word-spacing:0px;fill:#000000;fill-opacity:1;stroke:none;stroke-width:1px;stroke-linecap:butt;stroke-linejoin:miter;stroke-opacity:1"
               d="m 258.03583,-158.10781 q -5.42683,0 -9.52581,-1.96294 -4.0413,-1.96289 -6.75474,-5.25363 -2.71338,-3.34847 -4.09897,-7.67839 -1.32786,-4.38765 -1.32786,-9.17945 0,-3.233 0.63509,-6.81242 0.63503,-3.63715 1.90515,-7.10109 1.32785,-3.46395 3.29074,-6.58148 1.96288,-3.17527 4.56086,-5.5423 2.6557,-2.42476 5.88871,-3.81035 3.29074,-1.44327 7.27424,-1.44327 3.23306,0 6.00418,1.03918 2.77118,1.03917 4.7918,2.94432 2.07836,1.84747 3.233,4.50313 1.15465,2.6557 1.15465,5.94644 0,3.57942 -1.78968,7.15883 -1.732,3.57936 -4.84953,6.75468 -3.11753,3.17527 -7.44751,5.65777 -4.27218,2.48245 -9.29486,3.86804 0.86597,1.55879 1.67421,2.59797 0.86597,1.03918 1.732,1.61647 0.86597,0.57736 1.78968,0.8083 0.98144,0.23083 2.07835,0.23083 3.46395,0 7.2743,-1.38559 3.86804,-1.38559 7.50519,-3.46395 3.63715,-2.07835 6.87015,-4.50312 3.233,-2.4825 5.48457,-4.67633 l 7.4475,7.73613 q -5.08047,5.25368 -10.79598,9.29492 -2.4825,1.732 -5.36909,3.40621 -2.82892,1.67426 -6.00418,3.00206 -3.11754,1.27012 -6.52375,2.07835 -3.34847,0.75056 -6.81241,0.75056 z m -7.67839,-27.13421 q 2.07835,0 4.50312,-1.03917 2.4825,-1.09692 4.56085,-2.77118 2.1361,-1.67421 3.57942,-3.63715 1.44327,-1.96289 1.44327,-3.8103 0,-2.59797 -0.98144,-4.27224 -0.92371,-1.67421 -2.3093,-1.67421 -2.4825,0 -4.27218,0.92371 -1.73195,0.92371 -2.94433,2.42477 -1.15465,1.44332 -1.90521,3.34847 -0.69276,1.84741 -1.09691,3.75262 -0.34652,1.90515 -0.46165,3.69483 -0.1157,1.78973 -0.1157,3.05985 z"
               inkscape:connector-curvature="0" />
            <path
               id="path3603"
               style="font-style:normal;font-variant:normal;font-weight:normal;font-stretch:normal;font-size:medium;line-height:125%;font-family:Pacifico;-inkscape-font-specification:Pacifico;letter-spacing:0px;word-spacing:0px;fill:#000000;fill-opacity:1;stroke:none;stroke-width:1px;stroke-linecap:butt;stroke-linejoin:miter;stroke-opacity:1"
               d="m 339.28065,-233.39083 q -0.4038,2.48251 -0.9237,5.25368 -0.51951,2.77113 -0.98144,5.5423 -0.46166,2.77113 -0.80824,5.3691 -0.28868,2.59797 -0.28868,4.67633 0,2.02062 0.46166,3.52168 0.46165,1.501 1.501,2.54023 1.09691,1.03918 2.88665,1.61648 1.84741,0.5195 4.56086,0.57735 2.25156,0.0578 3.29074,1.96288 1.03917,1.90515 1.03917,4.50312 0,1.73195 -0.46165,3.57942 -0.46166,1.78968 -1.38553,3.29074 -0.86603,1.44332 -2.19383,2.36703 -1.27012,0.92371 -2.88665,0.92371 -2.71344,0 -4.67633,0.9237 -1.96288,0.86598 -3.34847,2.3093 -1.32785,1.38559 -2.13609,3.11753 -0.7505,1.67427 -0.98144,3.23301 -0.63503,3.63715 -1.15465,6.92789 -0.51951,3.29074 -1.09691,6.92789 -0.92371,5.65777 -3.00207,10.39183 -2.07841,4.73406 -5.08047,8.14027 -2.94433,3.46395 -6.63921,5.36909 -3.69489,1.96289 -7.8516,1.96289 -1.09691,0 -3.17527,-0.28868 -2.07835,-0.23082 -4.56086,-0.7505 -2.4825,-0.5195 -5.08047,-1.38559 -2.59792,-0.80823 -4.73401,-1.96288 -2.07841,-1.15465 -3.40621,-2.65571 -1.32785,-1.44332 -1.32785,-3.29074 0,-2.25156 0.80824,-3.92582 0.86597,-1.61648 2.07835,-2.71339 1.21239,-1.03918 2.54024,-1.5588 1.32785,-0.5195 2.3093,-0.5195 1.78967,0 3.29073,0.63509 1.50106,0.69276 3.00207,1.501 1.55879,0.80829 3.17527,1.44333 1.67426,0.69276 3.75262,0.69276 1.84747,0 3.34847,-0.80824 1.50106,-0.7505 2.77118,-2.82885 1.27012,-2.07841 2.25156,-5.65777 1.03918,-3.57942 1.96288,-9.17945 0.63503,-3.86809 1.44333,-7.90933 0.80823,-4.0413 2.25156,-7.50519 1.44327,-3.46394 3.75256,-5.94645 2.36703,-2.4825 6.06192,-3.29073 -2.3093,-0.86603 -3.86809,-2.3093 -1.501,-1.44332 -2.42471,-3.34847 -0.92377,-1.90521 -1.32786,-4.21451 -0.34652,-2.30924 -0.34652,-4.84947 0,-3.05986 0.40437,-6.58148 0.40438,-3.57942 0.92371,-6.98562 0.5195,-3.46395 0.92371,-6.46601 0.40437,-3.00212 0.40437,-5.02274 0,-2.36703 -0.40437,-3.92583 -0.34653,-1.55873 -1.03918,-2.42471 -0.69277,-0.92376 -1.73194,-1.27012 -1.03924,-0.34652 -2.36704,-0.34652 -2.07841,0 -4.50312,0.28868 -2.36703,0.28867 -4.67632,0.63503 -2.25157,0.34652 -4.32992,0.63508 -2.02068,0.28868 -3.40621,0.28868 -1.21238,0 -2.13609,-0.46165 -0.86603,-0.46166 -1.50106,-1.21239 -0.63509,-0.80829 -0.98144,-1.78973 -0.28868,-0.98145 -0.28868,-2.07836 0,-1.55874 0.7505,-3.0598 0.75056,-1.50106 2.25156,-2.4825 3.11759,-1.90515 6.58148,-3.00206 3.52168,-1.09691 6.87015,-1.67427 3.40621,-0.57729 6.3506,-0.69276 3.00206,-0.17298 5.08042,-0.17298 3.52167,0 6.29285,1.38559 2.77112,1.32779 4.67633,3.8103 1.96289,2.4825 2.94433,6.00418 1.03918,3.46394 1.03918,7.79386 0,3.0598 -0.51951,6.40827 z"
               inkscape:connector-curvature="0" />
          </g>
          <g
             id="text3605"
             style="font-style:normal;font-weight:normal;font-size:26.18208504px;line-height:125%;font-family:sans-serif;letter-spacing:0px;word-spacing:0px;fill:#4e9a06;fill-opacity:1;stroke:none;stroke-width:1px;stroke-linecap:butt;stroke-linejoin:miter;stroke-opacity:1"
             transform="matrix(0.99098769,-0.13395298,0.13395298,0.99098769,0,0)">
            <path
               inkscape:connector-curvature="0"
               id="path3611"
               style="font-style:normal;font-variant:normal;font-weight:normal;font-stretch:normal;font-family:Pacifico;-inkscape-font-specification:Pacifico;fill:#4e9a06"
               d="m 77.411085,55.853467 q 0.715916,-0.613643 1.163364,-1.022738 0.447448,-0.409095 0.767053,-0.741485 0.319606,-0.345174 0.57529,-0.690348 0.268469,-0.345174 0.626427,-0.81819 0.357958,-0.473016 0.869327,-1.15058 0.511369,-0.690348 1.329559,-1.713086 0.166195,-0.230116 0.370743,-0.447447 0.204547,-0.217332 0.447447,-0.383527 0.255685,-0.178979 0.549722,-0.281253 0.306821,-0.115058 0.677564,-0.115058 0.613642,0 0.946032,0.140627 0.33239,0.127842 0.4858,0.319605 0.153411,0.191763 0.178979,0.409095 0.02557,0.204548 0.02557,0.357958 0,0.306822 -0.2429,0.677564 -0.2429,0.370743 -0.536938,0.715917 -0.294037,0.345174 -0.562505,0.639211 -0.255685,0.281252 -0.294037,0.421879 0,0.396311 0.05114,0.728701 0.06392,0.319605 0.15341,0.639211 0.102274,0.306821 0.204548,0.664779 0.102273,0.345174 0.191763,0.805406 0.102274,0.460232 0.153411,1.06109 0.06392,0.600859 0.06392,1.419049 0.460232,-0.306821 0.984385,-0.549722 0.536937,-0.255684 1.112227,-0.524153 0.57529,-0.268468 1.176148,-0.588074 0.613643,-0.33239 1.227286,-0.792622 l 0.01278,2.863666 q -0.792622,0.613643 -1.840928,1.15058 -1.035522,0.536937 -2.186102,0.946032 -1.137796,0.409095 -2.313944,0.651996 -1.163364,0.230116 -2.21167,0.230116 -0.754269,0 -1.406264,-0.140627 -0.651996,-0.140626 -1.15058,-0.434663 -0.485801,-0.306822 -0.792622,-0.792622 -0.306821,-0.485801 -0.370742,-1.176148 -0.17898,0.03835 -0.357959,0.05114 -0.166195,0.01278 -0.332389,0.01278 -0.204548,0 -0.383527,-0.01278 -0.178979,-0.01278 -0.306821,-0.08949 -0.127843,-0.08949 -0.204548,-0.268469 -0.0767,-0.191763 -0.0767,-0.536937 0,-0.306821 0.15341,-0.562506 0.153411,-0.268468 0.357959,-0.473016 0.204547,-0.204548 0.409095,-0.357958 0.204547,-0.153411 0.306821,-0.2429 z m 1.63638,1.63638 q 0.153411,0 0.33239,0.191763 0.191763,0.191764 0.434664,0.42188 0.2429,0.230116 0.562505,0.421879 0.319606,0.191763 0.728701,0.191763 0.498585,0 0.81819,-0.166195 0.33239,-0.166195 0.524153,-0.434663 0.191763,-0.281253 0.268469,-0.639211 0.07671,-0.370743 0.07671,-0.767054 0,-0.345174 -0.05114,-0.703132 -0.03835,-0.357958 -0.115058,-0.677563 -0.06392,-0.33239 -0.15341,-0.613643 -0.07671,-0.294037 -0.140627,-0.498585 l -3.285545,3.272761 z" />
            <path
               inkscape:connector-curvature="0"
               id="path3613"
               style="font-style:normal;font-variant:normal;font-weight:normal;font-stretch:normal;font-family:Pacifico;-inkscape-font-specification:Pacifico;fill:#4e9a06"
               d="m 92.816072,60.762608 q -1.176148,0 -2.071044,-0.434664 -0.882111,-0.434663 -1.48297,-1.163364 -0.600858,-0.728701 -0.907679,-1.687517 -0.306822,-0.958817 -0.306822,-1.994339 0,-0.741485 0.153411,-1.546891 0.153411,-0.805405 0.447448,-1.572459 0.306821,-0.779837 0.741485,-1.482969 0.447447,-0.703133 1.022737,-1.227286 0.588075,-0.536937 1.303991,-0.843758 0.715916,-0.319606 1.572459,-0.319606 0.728701,0 1.342343,0.230116 0.626427,0.217332 1.061091,0.613643 0.447447,0.396311 0.690348,0.946032 0.255684,0.536937 0.255684,1.163364 0,0.434664 -0.115058,0.856543 -0.115058,0.421879 -0.345174,0.767053 -0.217332,0.33239 -0.536937,0.536938 -0.319606,0.204547 -0.715917,0.204547 -0.600858,0 -0.792621,-0.319605 -0.178979,-0.319606 -0.178979,-0.882112 0,-0.230116 0.01278,-0.4858 0.02557,-0.255684 0.02557,-0.460232 0,-0.306821 -0.06392,-0.511369 -0.06392,-0.204547 -0.281253,-0.204547 -0.524153,0 -0.894895,0.255684 -0.370743,0.2429 -0.639211,0.651995 -0.255685,0.396311 -0.409095,0.90768 -0.153411,0.498585 -0.242901,0.997169 -0.08949,0.498585 -0.115058,0.958817 -0.02557,0.447448 -0.02557,0.754269 0,0.460232 0.07671,0.958817 0.08949,0.498584 0.319606,0.920464 0.230116,0.409095 0.626427,0.690347 0.396311,0.268469 1.022737,0.268469 0.613643,0 1.355128,-0.370742 0.741485,-0.383527 1.48297,-0.958817 0.754269,-0.57529 1.431832,-1.265638 0.677564,-0.690348 1.163364,-1.30399 l 0.882112,1.482969 q -0.958817,1.367912 -2.071044,2.441787 -0.473016,0.460232 -1.035522,0.894895 -0.549722,0.434664 -1.163364,0.779838 -0.600859,0.332389 -1.265638,0.549721 -0.651995,0.204548 -1.329559,0.204548 z" />
            <path
               inkscape:connector-curvature="0"
               id="path3615"
               style="font-style:normal;font-variant:normal;font-weight:normal;font-stretch:normal;font-family:Pacifico;-inkscape-font-specification:Pacifico;fill:#4e9a06"
               d="m 102.68549,52.810822 q 0.52415,-0.690348 1.17615,-1.48297 0.65199,-0.792621 1.35513,-1.470185 0.70313,-0.690348 1.39348,-1.137796 0.70313,-0.460232 1.31677,-0.460232 0.15341,0 0.34517,0.06392 0.19177,0.05114 0.35796,0.204548 0.17898,0.153411 0.29404,0.434663 0.11506,0.268469 0.11506,0.703133 0,0.869327 -0.2429,1.700301 -0.2429,0.81819 -0.53694,1.649165 -0.28125,0.81819 -0.52415,1.674732 -0.23012,0.856543 -0.23012,1.789791 0,0.511369 0.15341,0.818191 0.15341,0.306821 0.39631,0.306821 0.30682,0 0.652,-0.127842 0.34517,-0.127842 0.69035,-0.33239 0.34517,-0.204548 0.67756,-0.460232 0.33239,-0.268469 0.62643,-0.549722 0.70313,-0.651995 1.38069,-1.482969 l 0.21733,3.400603 q -0.23011,0.178979 -0.58807,0.447447 -0.34517,0.268469 -0.77984,0.57529 -0.42188,0.294037 -0.92046,0.600859 -0.49859,0.306821 -1.00995,0.549721 -0.49859,0.230116 -1.00996,0.383527 -0.49858,0.153411 -0.95881,0.153411 -0.70314,0 -1.22729,-0.370743 -0.51137,-0.383526 -0.84376,-0.958816 -0.33239,-0.588075 -0.49858,-1.278423 -0.1662,-0.690347 -0.1662,-1.30399 0,-0.409095 0.10228,-0.90768 0.11505,-0.511369 0.26846,-1.022738 0.1662,-0.511368 0.35796,-0.997169 0.20455,-0.4858 0.37075,-0.869327 0.17897,-0.383526 0.30682,-0.626427 0.12784,-0.2429 0.16619,-0.281253 l -0.26847,-0.03835 q -0.21733,0.140626 -0.74148,0.715916 -0.51137,0.57529 -1.16337,1.457401 -0.65199,0.869327 -1.35512,1.96877 -0.69035,1.086659 -1.25286,2.250023 -0.28125,0.57529 -0.46023,1.009954 -0.17898,0.421879 -0.35796,0.703132 -0.16619,0.268469 -0.37074,0.409095 -0.204548,0.140627 -0.524153,0.140627 -0.421879,0 -0.66478,-0.242901 -0.2429,-0.2429 -0.370742,-0.639211 -0.127842,-0.409095 -0.166195,-0.920464 -0.03835,-0.511368 -0.03835,-1.048306 0,-0.856543 0.01278,-2.237238 0.02557,-1.393481 0.127842,-3.080998 0.102274,-1.687517 0.294037,-3.554013 0.191763,-1.866497 0.536937,-3.681856 0.357959,-1.828144 0.882112,-3.477308 0.536942,-1.661949 1.291212,-2.914803 0.76705,-1.265637 1.78979,-2.007122 1.02273,-0.741485 2.35229,-0.741485 0.69035,0 1.12502,0.204547 0.44744,0.204548 0.70313,0.57529 0.26847,0.370743 0.37074,0.894896 0.10227,0.511369 0.10227,1.15058 0,0.946032 -0.26847,2.096612 -0.26846,1.15058 -0.71591,2.390649 -0.43467,1.24007 -0.99717,2.518492 -0.56251,1.265638 -1.15058,2.467355 -0.58807,1.188932 -1.16336,2.250023 -0.56251,1.06109 -0.99717,1.866496 l 0.25568,0.178979 z m 1.1378,-7.900649 q 0.75426,-1.955986 1.08665,-3.298329 0.34518,-1.342343 0.34518,-1.981554 0,-0.971601 -0.25569,-0.971601 -0.33239,0 -0.98438,1.086659 -0.652,1.086659 -1.53411,3.157703 -0.21733,0.703132 -0.40909,1.457401 -0.17898,0.754269 -0.33239,1.508538 -0.14063,0.741485 -0.26847,1.470185 -0.11506,0.715917 -0.20455,1.367912 -0.21733,1.521322 -0.33239,2.978724 0.34518,-0.805406 0.75427,-1.751439 0.4091,-0.946032 0.80541,-1.866496 0.39631,-0.933248 0.74148,-1.751438 0.35796,-0.830975 0.58808,-1.406265 z" />
            <path
               inkscape:connector-curvature="0"
               id="path3617"
               style="font-style:normal;font-variant:normal;font-weight:normal;font-stretch:normal;font-family:Pacifico;-inkscape-font-specification:Pacifico;fill:#4e9a06"
               d="m 119.21549,51.187226 q 0.37074,0.741485 0.54972,1.572459 0.19176,0.81819 0.19176,1.572459 0,0.754269 -0.16619,1.521323 -0.1662,0.767053 -0.4858,1.482969 -0.30682,0.715917 -0.76706,1.342344 -0.44744,0.626426 -1.03552,1.086658 -0.57529,0.460232 -1.26564,0.728701 -0.69034,0.268469 -1.47018,0.268469 -1.12501,0 -1.93042,-0.485801 -0.79262,-0.498584 -1.30399,-1.291206 -0.51137,-0.792622 -0.75427,-1.789791 -0.23011,-0.997169 -0.23011,-2.019907 0,-1.406264 0.42187,-2.620765 0.42188,-1.227286 1.20172,-2.122181 0.79262,-0.90768 1.93042,-1.419049 1.13779,-0.524153 2.55684,-0.524153 1.2145,0 2.27559,0.383527 1.06109,0.370742 1.98156,1.009953 0.93325,0.626427 1.72587,1.444617 0.8054,0.81819 1.49575,1.687518 l -0.2429,1.802575 q -0.34517,-0.460232 -0.93325,-0.99717 -0.58807,-0.536937 -1.25285,-1.048306 -0.65199,-0.511369 -1.29121,-0.958816 -0.63921,-0.460232 -1.09944,-0.767054 l -0.10227,0.140627 z m -3.95033,7.120811 q 0.43467,0 0.84376,-0.434663 0.4091,-0.447448 0.71592,-1.112228 0.30682,-0.677563 0.4858,-1.482969 0.19176,-0.81819 0.19176,-1.559675 0,-0.588074 -0.0895,-1.086659 -0.0895,-0.511369 -0.26847,-0.882111 -0.17898,-0.370743 -0.46023,-0.588075 -0.28125,-0.217331 -0.67756,-0.217331 -0.52416,0 -0.99717,0.447447 -0.47302,0.447448 -0.83098,1.15058 -0.35795,0.690348 -0.5625,1.534107 -0.20455,0.843758 -0.20455,1.623596 0,0.536937 0.10227,1.009953 0.10228,0.473017 0.31961,0.830975 0.21733,0.345174 0.57529,0.562506 0.35796,0.204547 0.85654,0.204547 z" />
            <path
               inkscape:connector-curvature="0"
               id="path3619"
               style="font-style:normal;font-variant:normal;font-weight:normal;font-stretch:normal;font-family:Pacifico;-inkscape-font-specification:Pacifico;fill:#4e9a06"
               d="m 130.36333,51.187226 q 0.37074,0.741485 0.54972,1.572459 0.19176,0.81819 0.19176,1.572459 0,0.754269 -0.16619,1.521323 -0.1662,0.767053 -0.4858,1.482969 -0.30682,0.715917 -0.76705,1.342344 -0.44745,0.626426 -1.03553,1.086658 -0.57529,0.460232 -1.26563,0.728701 -0.69035,0.268469 -1.47019,0.268469 -1.12501,0 -1.93042,-0.485801 -0.79262,-0.498584 -1.30399,-1.291206 -0.51137,-0.792622 -0.75427,-1.789791 -0.23011,-0.997169 -0.23011,-2.019907 0,-1.406264 0.42188,-2.620765 0.42188,-1.227286 1.20171,-2.122181 0.79263,-0.90768 1.93042,-1.419049 1.1378,-0.524153 2.55685,-0.524153 1.2145,0 2.27559,0.383527 1.06109,0.370742 1.98155,1.009953 0.93325,0.626427 1.72587,1.444617 0.80541,0.81819 1.49575,1.687518 l -0.2429,1.802575 q -0.34517,-0.460232 -0.93324,-0.99717 -0.58808,-0.536937 -1.25286,-1.048306 -0.65199,-0.511369 -1.2912,-0.958816 -0.63921,-0.460232 -1.09945,-0.767054 l -0.10227,0.140627 z m -3.95032,7.120811 q 0.43466,0 0.84375,-0.434663 0.4091,-0.447448 0.71592,-1.112228 0.30682,-0.677563 0.4858,-1.482969 0.19176,-0.81819 0.19176,-1.559675 0,-0.588074 -0.0895,-1.086659 -0.0895,-0.511369 -0.26846,-0.882111 -0.17898,-0.370743 -0.46024,-0.588075 -0.28125,-0.217331 -0.67756,-0.217331 -0.52415,0 -0.99717,0.447447 -0.47302,0.447448 -0.83097,1.15058 -0.35796,0.690348 -0.56251,1.534107 -0.20455,0.843758 -0.20455,1.623596 0,0.536937 0.10228,1.009953 0.10227,0.473017 0.3196,0.830975 0.21733,0.345174 0.57529,0.562506 0.35796,0.204547 0.85655,0.204547 z" />
            <path
               inkscape:connector-curvature="0"
               id="path3621"
               style="font-style:normal;font-variant:normal;font-weight:normal;font-stretch:normal;font-family:Pacifico;-inkscape-font-specification:Pacifico;fill:#4e9a06"
               d="m 136.51254,60.762608 q -0.69035,0 -1.29121,-0.600859 -0.58807,-0.613642 -1.03552,-1.63638 -0.43466,-1.022738 -0.69035,-2.365081 -0.2429,-1.355128 -0.2429,-2.838097 0,-1.137796 0.1662,-2.467355 0.16619,-1.342343 0.4858,-2.761392 0.3196,-1.419048 0.75427,-2.850881 0.44744,-1.431833 0.99717,-2.748608 0.5625,-1.316774 1.2145,-2.45457 0.65199,-1.15058 1.36791,-1.994339 0.71591,-0.856542 1.49575,-1.342343 0.77984,-0.4858 1.58525,-0.4858 0.54972,0 0.90767,0.255684 0.35796,0.2429 0.56251,0.651996 0.20455,0.409095 0.28125,0.933248 0.0895,0.511369 0.0895,1.048306 0,1.201717 -0.28125,2.45457 -0.26847,1.24007 -0.74148,2.505708 -0.46024,1.252853 -1.07388,2.518491 -0.61364,1.265638 -1.27842,2.518492 -0.66478,1.240069 -1.34234,2.45457 -0.66478,1.201717 -1.25286,2.352297 -0.0639,0.127842 -0.14062,0.33239 -0.0639,0.204547 -0.12785,0.447447 -0.0639,0.230116 -0.12784,0.498585 -0.0639,0.268469 -0.10227,0.524153 l 0,0.178979 q 0,0.33239 0.0639,0.651996 0.0767,0.306821 0.17898,0.562505 0.10227,0.242901 0.21733,0.396311 0.11506,0.140627 0.21733,0.140627 0.2429,0 0.54972,-0.102274 0.31961,-0.102274 0.66478,-0.268469 0.35796,-0.178979 0.7287,-0.396311 0.37074,-0.230116 0.71592,-0.460232 0.8054,-0.536937 1.68752,-1.240069 l 1.0483,2.684686 q -1.13779,0.818191 -2.25002,1.457402 -0.4858,0.268468 -1.00995,0.536937 -0.51137,0.255684 -1.03553,0.460232 -0.52415,0.204547 -1.02273,0.33239 -0.49859,0.115058 -0.93325,0.115058 z m 0.0128,-10.227377 q 0.57529,-1.022738 1.2145,-2.30116 0.652,-1.278422 1.22729,-2.63355 0.57529,-1.355127 0.99717,-2.69747 0.42188,-1.355128 0.53693,-2.518492 0,-0.370742 -0.0256,-0.626427 -0.0128,-0.268469 -0.11506,-0.268469 -0.37074,0 -0.80541,0.485801 -0.42188,0.473016 -0.85654,1.291206 -0.42188,0.81819 -0.81819,1.904849 -0.38353,1.086659 -0.69035,2.313944 -0.30682,1.227285 -0.4858,2.531276 -0.17898,1.291206 -0.17898,2.518492 z" />
          </g>
        </g>
      </g>
    </g>
  </g>
</svg>
